<svg id="Perfectial_logo" data-name="Perfectial logo" xmlns="http://www.w3.org/2000/svg" viewBox="0 0 198.43 44.55"><defs><style>.cls-1{fill:#fff;}</style></defs><title>perfectial_logo_white</title><g id="Logo"><path class="cls-1" d="M165,5.35a2.16,2.16,0,0,0-1.59.65,2.21,2.21,0,0,0-.66,1.63,2.21,2.21,0,0,0,.66,1.63,2.16,2.16,0,0,0,1.59.65,2.24,2.24,0,0,0,2.28-2.28A2.24,2.24,0,0,0,165,5.35Z"/><path class="cls-1" d="M59.85,8.23A6.88,6.88,0,0,0,57.57,6.4a7,7,0,0,0-3.26-.72H43.2V31.46h4.27v-10h6.77a6.59,6.59,0,0,0,3.12-.72,7.39,7.39,0,0,0,2.32-1.85,8.5,8.5,0,0,0,2-5.33,9.14,9.14,0,0,0-.45-2.79A7.86,7.86,0,0,0,59.85,8.23Zm-3.5,8.24a4,4,0,0,1-3,1.11H47.47v-8h5.91a4,4,0,0,1,3,1.11,3.94,3.94,0,0,1,1.11,2.91A3.94,3.94,0,0,1,56.35,16.47Z"/><path class="cls-1" d="M77.71,14.65a7,7,0,0,0-2.44-1.41,9.64,9.64,0,0,0-3.1-.48,8.66,8.66,0,0,0-3,.5,7.6,7.6,0,0,0-2.43,1.44A6.45,6.45,0,0,0,65.1,17a7.55,7.55,0,0,0-.58,3v4.87a6.52,6.52,0,0,0,.64,3A5.86,5.86,0,0,0,66.9,30a7.47,7.47,0,0,0,2.54,1.26,11.23,11.23,0,0,0,3,.41,12.4,12.4,0,0,0,3.5-.51,7.88,7.88,0,0,0,3.31-2c-.38-.48-.76-.93-1.14-1.37s-.78-.89-1.18-1.37a5.62,5.62,0,0,1-2.41,1.39,8.94,8.94,0,0,1-2.08.3A5.52,5.52,0,0,1,71,27.85a3.6,3.6,0,0,1-1.27-.63,3.24,3.24,0,0,1-.88-1.13,3.81,3.81,0,0,1-.33-1.66v-.94H79.86V19.86a7.59,7.59,0,0,0-.56-3A6.12,6.12,0,0,0,77.71,14.65Zm-1.82,6H68.52v-.6a3.36,3.36,0,0,1,1.11-2.75,3.93,3.93,0,0,1,2.6-.91,4,4,0,0,1,2.58.87,3.45,3.45,0,0,1,1.08,2.83Z"/><path class="cls-1" d="M94.65,12.68a7.16,7.16,0,0,0-2,.28,13.49,13.49,0,0,0-1.9.71,12.41,12.41,0,0,0-1.69,1,8.26,8.26,0,0,0-1.25,1h0l-.33-2.73h-3.6V31.46h4V18.93a15,15,0,0,1,2.71-1.27,16.31,16.31,0,0,1,4.1-.83Z"/><path class="cls-1" d="M102.71,4.94a4.36,4.36,0,0,0-1.63.94A4.57,4.57,0,0,0,100,7.47a5.74,5.74,0,0,0-.41,2.24v3.23H97.36v3.37h2.21V31.46h3.89V16.31H108V12.94h-4.56V10.17a2.77,2.77,0,0,1,.37-1.49,1.59,1.59,0,0,1,1.46-.6H108V4.64h-3.29A6.62,6.62,0,0,0,102.71,4.94Z"/><path class="cls-1" d="M123.17,26.37a5.65,5.65,0,0,1-2.42,1.39,8.87,8.87,0,0,1-2.07.3,5.47,5.47,0,0,1-1.52-.21,3.52,3.52,0,0,1-1.27-.63,3.13,3.13,0,0,1-.88-1.13,3.67,3.67,0,0,1-.34-1.66v-.94h11.38V19.86a7.59,7.59,0,0,0-.56-3,6.36,6.36,0,0,0-1.59-2.22,7,7,0,0,0-2.44-1.41,9.64,9.64,0,0,0-3.1-.48,8.68,8.68,0,0,0-3,.5,7.55,7.55,0,0,0-2.42,1.44A6.33,6.33,0,0,0,111.29,17a7.55,7.55,0,0,0-.58,3v4.87a6.65,6.65,0,0,0,.63,3A6.07,6.07,0,0,0,113.08,30a7.61,7.61,0,0,0,2.55,1.26,11.18,11.18,0,0,0,3.05.41,12.34,12.34,0,0,0,3.49-.51,7.82,7.82,0,0,0,3.31-2c-.37-.48-.75-.93-1.14-1.37S123.56,26.85,123.17,26.37Zm-8.46-6.32a3.39,3.39,0,0,1,1.1-2.75,4,4,0,0,1,2.6-.91,4,4,0,0,1,2.59.87,3.45,3.45,0,0,1,1.08,2.83v.56h-7.37Z"/><path class="cls-1" d="M134.06,18.42a3.48,3.48,0,0,1,.9-1.17,3.58,3.58,0,0,1,1.21-.66,4.39,4.39,0,0,1,1.31-.2,6.67,6.67,0,0,1,1.74.26,5.83,5.83,0,0,1,2.27,1.42l2.32-3a7.11,7.11,0,0,0-3.2-2,10,10,0,0,0-1.7-.34,16.38,16.38,0,0,0-1.69-.09,8.69,8.69,0,0,0-2.77.45,7.41,7.41,0,0,0-2.39,1.31,6.36,6.36,0,0,0-2.32,5.05V25a6.31,6.31,0,0,0,.58,2.78,6.17,6.17,0,0,0,1.59,2.08,6.84,6.84,0,0,0,2.39,1.31,9.55,9.55,0,0,0,3,.45,12,12,0,0,0,3.37-.49,7.23,7.23,0,0,0,3.18-2l-2.44-2.73a5,5,0,0,1-2,1.22,6.32,6.32,0,0,1-1.9.35,5,5,0,0,1-1.39-.2,3.35,3.35,0,0,1-1.2-.66,3.27,3.27,0,0,1-.84-1.18,4.42,4.42,0,0,1-.31-1.77v-4A4,4,0,0,1,134.06,18.42Z"/><path class="cls-1" d="M157.09,27.89a11.66,11.66,0,0,1-1.27.09c-1.07,0-1.77-.25-2.1-.76a5,5,0,0,1-.48-2.53V16.31h4.82V12.94h-4.82V8.49h-3.1l-.79,4.45H146.8v3.37h2.47v9a10.84,10.84,0,0,0,.3,2.67,4.86,4.86,0,0,0,1,2,4.33,4.33,0,0,0,1.79,1.24,7.62,7.62,0,0,0,2.76.43c.5,0,1.16,0,2-.11a9.27,9.27,0,0,0,2.38-.53l-.79-3.48A8.06,8.06,0,0,1,157.09,27.89Z"/><rect class="cls-1" x="163.05" y="12.94" width="3.97" height="18.52"/><path class="cls-1" d="M187,19.53a6.73,6.73,0,0,0-1.79-5.13q-1.8-1.68-5.62-1.68a15.52,15.52,0,0,0-3.49.43A9.83,9.83,0,0,0,172.35,15l1.83,3a6.51,6.51,0,0,1,2.75-1.41,12.36,12.36,0,0,1,2.3-.28,4.77,4.77,0,0,1,2.88.71,2.8,2.8,0,0,1,.94,2.36v1.12h-5.13a9,9,0,0,0-2.19.3,7.38,7.38,0,0,0-2.19,1,5.56,5.56,0,0,0-1.68,1.7,4.67,4.67,0,0,0-.67,2.58,5.41,5.41,0,0,0,1.57,4.12,6.06,6.06,0,0,0,4.34,1.49,10.36,10.36,0,0,0,2.52-.35A14.71,14.71,0,0,0,183,29.78l.11.07.34,1.61H187Zm-4,6.84c-.3.18-.65.37-1,.57a10.77,10.77,0,0,1-1.24.54,12,12,0,0,1-1.33.41,5.53,5.53,0,0,1-1.34.17,3.14,3.14,0,0,1-2-.58,2,2,0,0,1-.74-1.63,2.11,2.11,0,0,1,.31-1.23,2.39,2.39,0,0,1,.79-.7,3.09,3.09,0,0,1,1-.31,8.09,8.09,0,0,1,1.08-.08h4.46Z"/><path class="cls-1" d="M197.34,31.65a8.88,8.88,0,0,0,1.09-.15l-.08-3.44a4.45,4.45,0,0,1-2.1-.34c-.37-.22-.56-.78-.56-1.68V4.67h-4v22a10.87,10.87,0,0,0,.17,2.08,3.54,3.54,0,0,0,.67,1.57,3.21,3.21,0,0,0,1.4,1,6.59,6.59,0,0,0,2.4.36C196.67,31.69,197,31.67,197.34,31.65Z"/><path class="cls-1" d="M10.66,11.75,21.25,18l9.8-5.78L10.39,0H10.3L.55,5.77Z"/><path class="cls-1" d="M10.9,37l20.64-12.2a.07.07,0,0,0,0-.07V13.2L10.9,25.42Z"/><path class="cls-1" d="M0,43.33a.07.07,0,0,0,0,.07s.08,0,.09,0l9.66-5.71V12.53L0,6.74Z"/><path class="cls-1" d="M46.5,42H44.18v1.74h2.71v.78H43.2V38.83h3.66v.79H44.18v1.56H46.5Z"/><path class="cls-1" d="M53.16,38.83l1.63,4.32,1.62-4.32h1.27v5.64h-1V42.61l.1-2.49-1.67,4.35h-.7l-1.66-4.34.1,2.48v1.86h-1V38.83Z"/><path class="cls-1" d="M64,42.38v2.09H63V38.83H65.2a2.17,2.17,0,0,1,1.5.49,1.65,1.65,0,0,1,.55,1.3,1.62,1.62,0,0,1-.54,1.3,2.35,2.35,0,0,1-1.53.46Zm0-.79H65.2a1.17,1.17,0,0,0,.79-.25.88.88,0,0,0,.28-.71A1,1,0,0,0,66,39.9a1.07,1.07,0,0,0-.77-.28H64Z"/><path class="cls-1" d="M76.81,41.8a3.47,3.47,0,0,1-.29,1.45,2.1,2.1,0,0,1-.82,1,2.36,2.36,0,0,1-2.44,0,2.14,2.14,0,0,1-.83-1,3.41,3.41,0,0,1-.3-1.43v-.32a3.52,3.52,0,0,1,.29-1.46,2.19,2.19,0,0,1,2-1.3,2.25,2.25,0,0,1,1.22.33,2.18,2.18,0,0,1,.83,1,3.39,3.39,0,0,1,.29,1.44Zm-1-.3a2.49,2.49,0,0,0-.35-1.43,1.26,1.26,0,0,0-2,0,2.46,2.46,0,0,0-.37,1.41v.33a2.42,2.42,0,0,0,.36,1.43,1.18,1.18,0,0,0,1,.51,1.16,1.16,0,0,0,1-.5,2.51,2.51,0,0,0,.35-1.44Z"/><path class="cls-1" d="M86.41,43.07l.87-4.24h1L87,44.47H86l-1.07-4.12-1.09,4.12H82.9l-1.3-5.64h1l.88,4.24,1.08-4.24h.82Z"/><path class="cls-1" d="M96.47,42H94.15v1.74h2.71v.78H93.17V38.83h3.66v.79H94.15v1.56h2.32Z"/><path class="cls-1" d="M103.93,42.3h-1.09v2.17h-1V38.83h2a2.32,2.32,0,0,1,1.51.44,1.55,1.55,0,0,1,.53,1.27,1.58,1.58,0,0,1-.27.94,1.74,1.74,0,0,1-.76.59l1.26,2.35v0h-1Zm-1.09-.79h1a1.08,1.08,0,0,0,.77-.25.85.85,0,0,0,.28-.68.91.91,0,0,0-.26-.7,1,1,0,0,0-.77-.26h-1Z"/><path class="cls-1" d="M119,41.5l1.3-2.67h1.08l-1.89,3.56v2.08h-1V42.39l-1.89-3.56h1.08Z"/><path class="cls-1" d="M130.62,41.8a3.47,3.47,0,0,1-.29,1.45,2.1,2.1,0,0,1-.82,1,2.26,2.26,0,0,1-1.22.34,2.32,2.32,0,0,1-1.23-.34,2.27,2.27,0,0,1-.83-1,3.41,3.41,0,0,1-.29-1.43v-.32a3.52,3.52,0,0,1,.29-1.46,2.19,2.19,0,0,1,2-1.3,2.28,2.28,0,0,1,1.22.33,2.16,2.16,0,0,1,.82,1,3.39,3.39,0,0,1,.3,1.44Zm-1-.3a2.42,2.42,0,0,0-.36-1.43,1.13,1.13,0,0,0-1-.5,1.16,1.16,0,0,0-1,.49,2.39,2.39,0,0,0-.36,1.41v.33a2.42,2.42,0,0,0,.36,1.43,1.25,1.25,0,0,0,2,0,2.51,2.51,0,0,0,.35-1.44Z"/><path class="cls-1" d="M139.92,38.83V42.6a1.83,1.83,0,0,1-.57,1.42,2.51,2.51,0,0,1-3.07,0,1.85,1.85,0,0,1-.57-1.44V38.83h1V42.6a1.22,1.22,0,0,0,.29.87,1.14,1.14,0,0,0,.84.29c.76,0,1.13-.39,1.13-1.19V38.83Z"/><path class="cls-1" d="M147.24,42.3h-1.09v2.17h-1V38.83h2a2.34,2.34,0,0,1,1.51.44,1.55,1.55,0,0,1,.53,1.27,1.58,1.58,0,0,1-.27.94,1.77,1.77,0,0,1-.77.59l1.27,2.35v0h-1Zm-1.09-.79h1a1.1,1.1,0,0,0,.77-.25.85.85,0,0,0,.28-.68.91.91,0,0,0-.26-.7,1.05,1.05,0,0,0-.77-.26h-1Z"/><path class="cls-1" d="M161.54,44.47h-1V38.83h1Z"/><path class="cls-1" d="M166.94,44.47V38.83h1.67a2.59,2.59,0,0,1,1.32.33,2.23,2.23,0,0,1,.9,1,3,3,0,0,1,.32,1.4v.28a3,3,0,0,1-.32,1.41,2.23,2.23,0,0,1-.91.94,2.73,2.73,0,0,1-1.35.33Zm1-4.85v4.07h.64a1.46,1.46,0,0,0,1.19-.49,2.14,2.14,0,0,0,.42-1.38v-.31a2.21,2.21,0,0,0-.4-1.41,1.44,1.44,0,0,0-1.16-.48Z"/><path class="cls-1" d="M179.62,42h-2.31v1.74H180v.78h-3.68V38.83H180v.79h-2.68v1.56h2.31Z"/><path class="cls-1" d="M188.17,43.16H186l-.46,1.31h-1l2.13-5.64h.88l2.14,5.64h-1Zm-1.91-.79h1.64L187.08,40Z"/><path class="cls-1" d="M197.45,43a.69.69,0,0,0-.27-.58,3,3,0,0,0-.94-.4,4.47,4.47,0,0,1-1.08-.46,1.43,1.43,0,0,1-.77-1.26,1.38,1.38,0,0,1,.55-1.13,2.27,2.27,0,0,1,1.44-.44,2.32,2.32,0,0,1,1.05.22,1.7,1.7,0,0,1,.73.62,1.6,1.6,0,0,1,.26.89h-1a.92.92,0,0,0-.28-.7,1.41,1.41,0,0,0-1.54,0,.68.68,0,0,0-.26.57.62.62,0,0,0,.28.52,3.26,3.26,0,0,0,.95.4,4,4,0,0,1,1.05.45,1.62,1.62,0,0,1,.59.57,1.56,1.56,0,0,1,.19.76,1.33,1.33,0,0,1-.55,1.12,2.3,2.3,0,0,1-1.46.42,2.82,2.82,0,0,1-1.13-.23,1.85,1.85,0,0,1-.79-.63,1.54,1.54,0,0,1-.29-.93h1a.94.94,0,0,0,.32.75,1.41,1.41,0,0,0,.91.26,1.2,1.2,0,0,0,.77-.21A.66.66,0,0,0,197.45,43Z"/></g></svg>