<svg id="perfectial_logo" data-name="perfectial logo" xmlns="http://www.w3.org/2000/svg" viewBox="0 0 198.43 45.04"><defs><style>.cls-1{fill:#f37576;}.cls-2{fill:#f69b9c;}.cls-3{fill:#f14f51;}</style></defs><title>perfectial_logo_color</title><g id="logo"><path class="cls-1" d="M21.8,19.21l10.81-6.37a.59.59,0,0,0-.23-.24L11.23.09a.63.63,0,0,0-.65,0L.33,6.14a.69.69,0,0,0-.24.24Z"/><path class="cls-2" d="M10.91,12.77.09,6.38A.66.66,0,0,0,0,6.7V43.89a.64.64,0,0,0,1,.55l9.93-5.87Z"/><path class="cls-3" d="M32.61,12.84,10.9,25.66V38.57l21.48-12.7a.65.65,0,0,0,.32-.56V13.15A.56.56,0,0,0,32.61,12.84Z"/><path d="M54.72,6.31A7,7,0,0,1,58,7a6.88,6.88,0,0,1,2.28,1.83,7.93,7.93,0,0,1,1.34,2.52A9,9,0,0,1,62,14.15a8.11,8.11,0,0,1-.51,2.78,8.28,8.28,0,0,1-1.45,2.53,7.5,7.5,0,0,1-2.32,1.85,6.63,6.63,0,0,1-3.11.71H47.9V32H43.64V6.31ZM47.9,18.18h5.89a4,4,0,0,0,3-1.11,4,4,0,0,0,1.1-2.9,4,4,0,0,0-1.1-2.91,4,4,0,0,0-3-1.11H47.9Z"/><path d="M68.86,24.07V25a3.81,3.81,0,0,0,.33,1.66,3.09,3.09,0,0,0,.88,1.12,3.54,3.54,0,0,0,1.27.64,5.79,5.79,0,0,0,1.51.2,8.87,8.87,0,0,0,2.07-.3,5.61,5.61,0,0,0,2.4-1.38c.4.48.79.93,1.18,1.36s.76.89,1.14,1.37a8,8,0,0,1-3.3,2,12.32,12.32,0,0,1-3.49.5,10.74,10.74,0,0,1-3-.41,7.45,7.45,0,0,1-2.54-1.25,5.94,5.94,0,0,1-1.73-2.11,6.48,6.48,0,0,1-.64-3V20.6a7.46,7.46,0,0,1,.58-3A6.24,6.24,0,0,1,67.1,15.3a7.25,7.25,0,0,1,2.42-1.43,8.57,8.57,0,0,1,3-.51,9.27,9.27,0,0,1,3.09.49,7.08,7.08,0,0,1,2.44,1.4,6.21,6.21,0,0,1,1.58,2.22,7.54,7.54,0,0,1,.56,3v3.62Zm7.38-3.39a3.41,3.41,0,0,0-1.08-2.82,4.16,4.16,0,0,0-5.17,0,3.37,3.37,0,0,0-1.1,2.74v.6h7.35Z"/><path d="M94.94,17.43a16.18,16.18,0,0,0-4.08.82,15.36,15.36,0,0,0-2.71,1.27V32h-4V13.51h3.58l.34,2.73h0a8.8,8.8,0,0,1,1.25-1,11.29,11.29,0,0,1,1.68-1A11.51,11.51,0,0,1,93,13.57a7,7,0,0,1,2-.28Z"/><path d="M103.73,16.91V32H99.85V16.91h-2.2V13.55h2.2V10.33a5.65,5.65,0,0,1,.41-2.23,4.61,4.61,0,0,1,1.1-1.6A4.35,4.35,0,0,1,103,5.57a6.62,6.62,0,0,1,2-.3h3.28V8.7h-2.72a1.59,1.59,0,0,0-1.46.6,2.72,2.72,0,0,0-.37,1.49v2.76h4.55v3.36Z"/><path d="M114.91,24.07V25a3.67,3.67,0,0,0,.34,1.66,3.07,3.07,0,0,0,.87,1.12,3.62,3.62,0,0,0,1.27.64,5.85,5.85,0,0,0,1.51.2,8.87,8.87,0,0,0,2.07-.3,5.7,5.7,0,0,0,2.41-1.38c.4.48.79.93,1.17,1.36s.77.89,1.14,1.37a7.9,7.9,0,0,1-3.3,2,12.32,12.32,0,0,1-3.49.5,10.79,10.79,0,0,1-3-.41,7.4,7.4,0,0,1-2.53-1.25,5.86,5.86,0,0,1-1.74-2.11,6.61,6.61,0,0,1-.63-3V20.6a7.63,7.63,0,0,1,.57-3,6.49,6.49,0,0,1,1.62-2.28,7.35,7.35,0,0,1,2.42-1.43,8.62,8.62,0,0,1,3-.51,9.25,9.25,0,0,1,3.08.49,6.9,6.9,0,0,1,2.44,1.4,6.21,6.21,0,0,1,1.58,2.22,7.37,7.37,0,0,1,.56,3v3.62Zm7.39-3.39a3.41,3.41,0,0,0-1.08-2.82,4.16,4.16,0,0,0-5.17,0,3.34,3.34,0,0,0-1.1,2.74v.6h7.35Z"/><path d="M144,29.7a7.33,7.33,0,0,1-3.17,2,12.18,12.18,0,0,1-3.36.48,9.73,9.73,0,0,1-2.94-.44,7,7,0,0,1-2.39-1.31,6.24,6.24,0,0,1-1.59-2.07,6.49,6.49,0,0,1-.58-2.78V20.12a6.43,6.43,0,0,1,.64-2.91,6.31,6.31,0,0,1,1.68-2.13,7.39,7.39,0,0,1,2.39-1.31,8.57,8.57,0,0,1,2.76-.44,16,16,0,0,1,1.67.09,9.82,9.82,0,0,1,1.7.33,7.61,7.61,0,0,1,1.64.71A7,7,0,0,1,144,15.71l-2.31,2.95a5.93,5.93,0,0,0-2.26-1.42,7.12,7.12,0,0,0-1.73-.26,4.37,4.37,0,0,0-1.31.21,3.31,3.31,0,0,0-1.21.65,3.52,3.52,0,0,0-.9,1.18,4.07,4.07,0,0,0-.35,1.77v3.95a4.24,4.24,0,0,0,.32,1.77,3.16,3.16,0,0,0,.84,1.18,3.07,3.07,0,0,0,1.19.65,4.62,4.62,0,0,0,1.38.21,6.37,6.37,0,0,0,1.9-.36,5.08,5.08,0,0,0,2-1.21Z"/><path d="M147,16.91V13.55h2.54l.79-4.44h3.09v4.44h4.81v3.36h-4.81v8.35a5,5,0,0,0,.48,2.52c.32.51,1,.77,2.09.77a9.87,9.87,0,0,0,1.27-.1,8.68,8.68,0,0,0,1.6-.35l.79,3.47a9.27,9.27,0,0,1-2.37.52c-.84.08-1.5.11-2,.11a7.6,7.6,0,0,1-2.75-.43,4.22,4.22,0,0,1-1.79-1.23,4.87,4.87,0,0,1-1-2,10.9,10.9,0,0,1-.3-2.67v-9Z"/><path d="M162.85,8.25a2.19,2.19,0,0,1,.66-1.62A2.12,2.12,0,0,1,165.09,6a2.16,2.16,0,0,1,1.62.65,2.19,2.19,0,0,1,.66,1.62,2.24,2.24,0,0,1-2.28,2.28,2.16,2.16,0,0,1-1.58-.65A2.21,2.21,0,0,1,162.85,8.25Zm.3,23.77V13.55h4V32Z"/><path d="M183,30.34a15.22,15.22,0,0,1-3.34,1.47,9.93,9.93,0,0,1-2.52.36,6,6,0,0,1-4.33-1.5,5.4,5.4,0,0,1-1.57-4.1,4.7,4.7,0,0,1,.67-2.57,5.56,5.56,0,0,1,1.68-1.7,7.14,7.14,0,0,1,2.19-.95,8.83,8.83,0,0,1,2.18-.3h5.11V19.93a2.77,2.77,0,0,0-.93-2.35,4.79,4.79,0,0,0-2.88-.71,11.48,11.48,0,0,0-2.29.28,6.45,6.45,0,0,0-2.74,1.4l-1.83-3a9.94,9.94,0,0,1,3.75-1.85,16.07,16.07,0,0,1,3.49-.42c2.53,0,4.4.56,5.59,1.67A6.68,6.68,0,0,1,187,20.12V32h-3.58l-.33-1.61Zm.07-6.23h-4.44a8,8,0,0,0-1.08.07,3.18,3.18,0,0,0-1,.32,2.14,2.14,0,0,0-.78.69,2.11,2.11,0,0,0-.32,1.23,1.91,1.91,0,0,0,.75,1.62,3.09,3.09,0,0,0,2,.58,5.18,5.18,0,0,0,1.34-.17,10.08,10.08,0,0,0,1.32-.41,9.91,9.91,0,0,0,1.23-.54c.39-.2.73-.38,1-.56Z"/><path d="M195.7,26.61c0,.89.19,1.45.56,1.68a4.53,4.53,0,0,0,2.09.33l.08,3.43a7.3,7.3,0,0,1-1.09.15c-.34,0-.67,0-1,0a6.72,6.72,0,0,1-2.38-.35,3.24,3.24,0,0,1-1.4-1,3.54,3.54,0,0,1-.67-1.57,10.83,10.83,0,0,1-.17-2.07V5.3h3.95Z"/><path d="M46.93,42.46H44.62v1.73h2.7V45H43.64V39.34h3.65v.79H44.62v1.55h2.31Z"/><path d="M53.57,39.34l1.63,4.31,1.61-4.31h1.27V45h-1V43.11l.1-2.48L55.54,45h-.7l-1.66-4.33.1,2.47V45h-1V39.34Z"/><path d="M64.4,42.88V45h-1V39.34h2.15a2.17,2.17,0,0,1,1.5.5,1.63,1.63,0,0,1,.55,1.29,1.58,1.58,0,0,1-.54,1.29,2.26,2.26,0,0,1-1.52.46Zm0-.79h1.17a1.18,1.18,0,0,0,.8-.24.91.91,0,0,0,.27-.71,1,1,0,0,0-.27-.73,1.11,1.11,0,0,0-.77-.28H64.4Z"/><path d="M77.16,42.3a3.44,3.44,0,0,1-.29,1.45,2.1,2.1,0,0,1-.82,1,2.25,2.25,0,0,1-1.22.33,2.3,2.3,0,0,1-1.22-.33,2.19,2.19,0,0,1-.82-1,3.23,3.23,0,0,1-.3-1.43V42a3.52,3.52,0,0,1,.29-1.46,2.18,2.18,0,0,1,.83-1,2.4,2.4,0,0,1,2.43,0,2.07,2.07,0,0,1,.82.95,3.39,3.39,0,0,1,.3,1.44Zm-1-.29a2.49,2.49,0,0,0-.35-1.43,1.26,1.26,0,0,0-2,0A2.39,2.39,0,0,0,73.47,42v.32a2.47,2.47,0,0,0,.36,1.44,1.17,1.17,0,0,0,1,.5,1.15,1.15,0,0,0,1-.49,2.52,2.52,0,0,0,.35-1.45Z"/><path d="M86.73,43.58l.87-4.24h1L87.27,45h-.94l-1.07-4.11L84.17,45h-.94l-1.29-5.63h1l.88,4.23,1.07-4.23h.82Z"/><path d="M96.76,42.46H94.45v1.73h2.7V45H93.47V39.34h3.65v.79H94.45v1.55h2.31Z"/><path d="M104.2,42.8h-1.09V45h-1V39.34h2a2.29,2.29,0,0,1,1.5.44,1.52,1.52,0,0,1,.53,1.27,1.58,1.58,0,0,1-.27.94,1.76,1.76,0,0,1-.76.59l1.27,2.34v0h-1ZM103.11,42h1a1.15,1.15,0,0,0,.77-.25.9.9,0,0,0,.28-.68.91.91,0,0,0-.26-.7,1.1,1.1,0,0,0-.77-.26h-1Z"/><path d="M119.26,42l1.29-2.67h1.08l-1.88,3.56V45h-1V42.9l-1.89-3.56H118Z"/><path d="M130.81,42.3a3.44,3.44,0,0,1-.29,1.45,2.14,2.14,0,0,1-.81,1,2.29,2.29,0,0,1-1.23.33,2.24,2.24,0,0,1-1.21-.33,2.14,2.14,0,0,1-.83-1,3.54,3.54,0,0,1-.3-1.43V42a3.37,3.37,0,0,1,.3-1.46,2.1,2.1,0,0,1,.82-1,2.25,2.25,0,0,1,1.22-.33,2.28,2.28,0,0,1,1.22.33,2.19,2.19,0,0,1,.82.95,3.39,3.39,0,0,1,.29,1.44Zm-1-.29a2.49,2.49,0,0,0-.35-1.43,1.14,1.14,0,0,0-1-.5,1.13,1.13,0,0,0-1,.49,2.46,2.46,0,0,0-.37,1.41v.32a2.47,2.47,0,0,0,.36,1.44,1.18,1.18,0,0,0,1,.5,1.14,1.14,0,0,0,1-.49,2.45,2.45,0,0,0,.35-1.45Z"/><path d="M140.09,39.34V43.1a1.8,1.8,0,0,1-.58,1.42A2.16,2.16,0,0,1,138,45a2.22,2.22,0,0,1-1.54-.51,1.82,1.82,0,0,1-.56-1.43V39.34h1v3.77a1.2,1.2,0,0,0,.28.86,1.17,1.17,0,0,0,.85.29c.75,0,1.12-.39,1.12-1.19V39.34Z"/><path d="M147.39,42.8H146.3V45h-1V39.34h2a2.29,2.29,0,0,1,1.5.44,1.55,1.55,0,0,1,.53,1.27,1.58,1.58,0,0,1-.27.94,1.82,1.82,0,0,1-.76.59l1.26,2.34v0h-1.05ZM146.3,42h1a1.13,1.13,0,0,0,.77-.25.87.87,0,0,0,.28-.68.91.91,0,0,0-.25-.7,1.12,1.12,0,0,0-.77-.26h-1Z"/><path d="M161.64,45h-1V39.34h1Z"/><path d="M167,45V39.34h1.66a2.66,2.66,0,0,1,1.33.34,2.25,2.25,0,0,1,.89.94,3,3,0,0,1,.32,1.4v.28a3,3,0,0,1-.32,1.4,2.23,2.23,0,0,1-.91.94,2.7,2.7,0,0,1-1.35.33Zm1-4.84v4.06h.64a1.48,1.48,0,0,0,1.18-.48,2.14,2.14,0,0,0,.42-1.38V42a2.2,2.2,0,0,0-.4-1.4,1.42,1.42,0,0,0-1.16-.48Z"/><path d="M179.68,42.46h-2.31v1.73h2.7V45h-3.68V39.34H180v.79h-2.67v1.55h2.31Z"/><path d="M188.2,43.66H186L185.57,45h-1l2.13-5.63h.87L189.68,45h-1Zm-1.9-.79h1.63l-.82-2.33Z"/><path d="M197.45,43.52a.68.68,0,0,0-.26-.57,3.16,3.16,0,0,0-.94-.41,4.33,4.33,0,0,1-1.08-.45,1.45,1.45,0,0,1-.77-1.26,1.35,1.35,0,0,1,.55-1.12,2.21,2.21,0,0,1,1.44-.44,2.52,2.52,0,0,1,1.05.21,1.81,1.81,0,0,1,.72.62,1.63,1.63,0,0,1,.26.89h-1a.85.85,0,0,0-.28-.69,1.1,1.1,0,0,0-.79-.25,1.23,1.23,0,0,0-.74.2.68.68,0,0,0-.27.57.63.63,0,0,0,.29.52,3.31,3.31,0,0,0,.94.4,4.7,4.7,0,0,1,1.06.44,1.69,1.69,0,0,1,.58.58,1.49,1.49,0,0,1,.19.75,1.34,1.34,0,0,1-.54,1.12,2.33,2.33,0,0,1-1.47.41,2.76,2.76,0,0,1-1.12-.22,1.85,1.85,0,0,1-.79-.63,1.53,1.53,0,0,1-.29-.92h1a.92.92,0,0,0,.32.74,1.4,1.4,0,0,0,.9.26,1.26,1.26,0,0,0,.77-.2A.68.68,0,0,0,197.45,43.52Z"/></g></svg>