<svg xmlns="http://www.w3.org/2000/svg" width="16" height="20" viewBox="0 0 16 20">
  <path fill="#000" fill-rule="nonzero" d="M1 7.273h14c.555 0 1 .423 1 .946v10.835c0 .523-.448.946-1 .946H1c-.555 0-1-.424-1-.946V8.219c0-.523.448-.946 1-.946zm8 7.234v1.683s0 .953-.998.953C7.003 17.143 7 16.19 7 16.19v-1.683c-.598-.33-1-.945-1-1.65 0-1.052.895-1.905 2-1.905s2 .853 2 1.905c0 .705-.402 1.32-1 1.65zM1 8.182v10.952h14V8.182H1zm1.979-3.44v2.529h1V4.742S3.979.91 8 .91s4.037 3.853 4.037 3.853V7.27h1v-2.51S13.037 0 8 0C2.979 0 2.979 4.742 2.979 4.742z" />
</svg>
